<?xml version="1.0" encoding="UTF-8"?>
<svg id="_图层_1" data-name="图层_1" xmlns="http://www.w3.org/2000/svg" version="1.1" viewBox="0 0 5016 5016">
  <!-- Generator: Adobe Illustrator 29.0.1, SVG Export Plug-In . SVG Version: 2.1.0 Build 192)  -->
  <defs>
    <style>
      .st0 {
        fill: #1c6adb;
      }

      .st1 {
        fill: #f7fcfe;
      }

      .st2 {
        fill: #f8fdfe;
      }

      .st3 {
        fill: #f9fcfe;
      }

      .st4 {
        fill: #94c0fc;
      }

      .st5 {
        fill: #f8fcfe;
      }

      .st6 {
        fill: #f9fdfd;
      }

      .st7 {
        fill: #1e61d2;
      }

      .st8 {
        fill: #f9fefe;
      }

      .st9 {
        fill: #80b6fd;
      }

      .st10 {
        fill: #f9fdfe;
      }

      .st11 {
        fill: #0055d1;
      }

      .st12 {
        fill: #fcfefe;
      }

      .st13 {
        fill: #f9fcfd;
      }

      .st14 {
        fill: #a5ccfd;
      }

      .st15 {
        fill: #b5d7fe;
      }

      .st16 {
        fill: #fcfdfd;
      }
    </style>
  </defs>
  <circle class="st14" cx="2508" cy="2508" r="2500.9"/>
  <circle class="st0" cx="2508" cy="2508" r="2383.3"/>
  <path class="st7" d="M4818.9,1994.5l2.1,1.1c1.7,72.4,7.8,148.8-2.1,219.7,1.3-73.6,1-147.1,0-220.7Z"/>
  <g>
    <path class="st12" d="M2452.1,724.7c384.4-15.9,760.3,231.8,882.5,597.6,364.2-39.2,691.5,308.8,659.6,667.4,212.2,96.8,368.5,308.4,405.9,537.9,27.5,133.2,1.2,274.3-43,398h-1.9c-4.8,18.2-14.4,35.1-21.4,52.5h-1.9c-.6,2.6-1.3,5.1-1.9,7.8h-1.9c-111.5,236.7-355.6,404.7-616.8,420.3,29.5-197.3,63.2-393.1,95.3-589.6,13.3-75,25.4-150.1,38-225.2,18.9-76.1,7.9-141.7-45.7-199.9-51.5-50.8-121.5-52.1-188.7-62.3,15-84.5,29.7-169.9,45.7-253.9,25.1-92.4,8.1-188.9-89.5-227.7-41.2-14.3-85.9-14.7-128.6-22.9-106.6-16.3-213.8-30.6-319.9-48.1-186.3-26-372.1-55.1-558.3-82.2-141.5-20.6-283-42.1-424.4-63.3-113.8-15-229.5-58.9-268.5,90-16.9.4-36.7-.3-52.5-4.9-54.1-6-74.7-7.1-94.4,9.7h-3.9v1.9c-36.8,15.5-64.1,50.3-73.9,88.5h-1.9c-23.4,121.6-42.5,245.2-66.2,366.8-70-4.1-113.7,20.7-147.9,74.9-20.6,32.6-25.6,95.9-30,126.7-9.9,71.5-20.4,143.8-31.3,214.8-46.1-2.3-90.6-13.3-135.6-18.7-96.8-23.2-192,63.7-178,162.2,3.7,26.5,7.5,53,11.4,79.5,21.6,153,46.5,313.4,66.7,464.8-592.8-108.9-786.1-927.5-306-1292.8,145.7-109.4,99.6-11.3,125.6-156.2,58.5-306.2,358.8-528.1,666.8-483.2,103.7-362.3,462.5-624.9,836.6-630.7Z"/>
    <path class="st9" d="M1738.9,1813.8c398.1,57.9,788.8,114,1185.6,171.6,99.9,14.1,199.8,28.9,299.7,43.3,56,11.6,122.9,3.3,162.1,52.7,29.5,37.1,17.1,85.6,10.4,127.3-5.5,29.3-15.5,108.3-20.4,127.4-7.5,50.5-17.4,116.4-27.2,164.1-20.3,131-46.6,261.2-64.5,392.6h-1.1c-4.1-19.1-26.7-34.8-37.4-51.8-29.1-32.2-48.6-75.3-87-97.6-44.9-27.3-96.3-10.7-133.5,21.5-31.8,23.2-66,43-97.3,66.7-50.7-62.5-93.6-134.4-141.4-200.3-46.3-75.4-105.2-150.9-202.5-102.9-74.1,51.4-147.7,104-220.6,157.3-9.4-1.2-12.1-17.6-18.5-24.2-61.6-95.6-123.5-190.9-186.4-285.5-54.1-82.4-116.5-217.5-237.4-163.2-137.3,98.3-264.3,213-401.6,312.3,22-166,56.1-330.8,83.5-496.2,11.3-56.8,15.2-90.7,24.3-144.7,12.1-48,63.1-80,111.5-70.4ZM2927.1,2194.7c-122.1,65.2-84.6,253.4,50.9,270.4,82.4,10.2,163-61,160-144.6,1.6-101.6-122-181.3-210.9-125.8Z"/>
    <path class="st15" d="M1929.2,1538.5c434.1,61.9,865.4,128.5,1298.4,191.7,120.9,18.1,261.4,38.8,376.6,56,59.6,9.8,131.2,13.8,146.5,28.3,23.2,11.4,50.2,27.2,63.4,48.6,58.6,53.2,51.5,145.7,32.8,215-78,426.9-153.8,856.8-237.6,1281.9-10-94.4-31.2-192.3-71.3-279.5-2.2-.4-4.5-.7-6.8-1.1,53.1-329.6,121.6-656.8,167.4-987.7h2.3c18.9-144.9-93.9-165.9-210.4-168.6v3.4c-91.8-29.2-188.9-37.1-283.6-52.7-132-20.4-264.4-38.1-396.3-59.1-347.6-50.3-695.9-101.8-1043.2-148.4,5.2-74.6,86.8-145.3,161.8-127.8Z"/>
    <path class="st15" d="M3403.9,1886.9c-96.4-17.8-193.6-31.4-290.6-45.9-454.7-65.7-908.7-137-1364.3-195.1v-2.3h-27.2v.2c-11.3-1.8-22.7-2.4-33.9-4.7-3.2-2.8-14.7-1.9-19.7-2.9-35-2.9-63.1.8-95.7,14.2v2.3c-35,7.1-82.1,65.6-86,103h-2.3c-27.7,133.2-52.3,290.2-76.9,426.5h-12.4v1.1c3.8.4,7.6.8,11.3,1.1v5.7h1c-29.9,164.3-69.7,351.5-90.3,517.6,49,6.5,97.9,15.4,147.1,19.2,6.3-55.1,27.3-159.9,36.2-220.1,28.5-168.6,56.7-338.8,87.5-507.5,19.5-87.7,6.2-222.4,136-204.6,297.4,43.8,595.1,85.6,892.5,129.4,210.2,30,420.3,60.9,630.5,90.9,91.3,5.2,156.1,39.7,135.6,142.2-9,50.5-16.6,105.8-24.4,157.2-9.8,56-17.7,104.8-27.2,164.1-21.9,130.4-48.5,262.1-64.5,393.7h-2.3c-4.2,31.7-11.6,63.1-13.6,95,45.5,4.6,86.6,24.5,125.9,45.9-.1.5-.2,1-.3,1.6,4,2.8,7.8,5.1,12.4,6.8.1-.6.3-1.1.4-1.7-.1.9-.3,1.9-.4,2.8,10,7.3,19.4,17.8,29.4,24.9,47.8-289.8,98.7-579.3,146.5-869.1,37.1-151.9,10.1-263-160.4-291.7ZM1732,1647.7c.4,0,.9.1,1.3.2-.4.1-.9.2-1.3.3v-.5ZM1744.5,1645.9h0v2.3h0,0v-2.3ZM1556.6,1668.5s0,0,0,0h0s0,0,0,0ZM1533.2,1690c-.2.2-.4.4-.6.6l.3-.6h.3ZM1528.9,1694.6c-.4.5-.9.9-1.3,1.4.3-.5.5-.9.8-1.4h.5ZM1501.2,1739.8h0s0,0,0,0h0ZM1505.7,1726.2h2.3s0,0,0,0c0,0,0,0,0,0h-2.3ZM1510,1721.6c0,.2-.2.3-.2.5,0-.2.2-.3.2-.5ZM1556.6,1670.8h0ZM3401.2,2888.2c-.1.6-.2,1.3-.3,1.9,0-.6,0-1.3,0-1.9-.4,1.5-.8,3-1.1,4.5.5-3.3,1-6.5,1.6-9.8-.2,1.8-.3,3.5-.4,5.3h.4ZM3407.3,2904.6c.1-1.8.2-3.5.4-5.1h-.8c0,0,0-.1,0-.2.5-.2.9-.5,1.3-.7-.3,2-.6,4-.9,6ZM3418.9,1902.7c-.2-.6-.4-1.1-.6-1.7.7.8,1.6,1.6,2.4,2.3-.6-.2-1.2-.4-1.9-.6ZM3467.5,2482.6c.5-3.4,1.1-6.7,1.6-10.1-.3,2.6-.7,5.2-1,7.8-.2.8-.5,1.6-.7,2.3ZM3469,2526.4c1.9-13.7,3.7-27.4,5.4-41.2,0,1.2,0,2.4,0,3.5h1.1c-2.1,12.5-4.3,25.1-6.4,37.6Z"/>
    <path class="st4" d="M3490.5,1922c117.3,5,232.3,22.2,210.4,169.7h-2.3c-43.9,331.4-112.2,658.4-167.4,987.7,2.3.2,4.5.6,6.8,1.1,31.4,60.4,47.7,129.4,59.9,195.8,3.4,13.8,4.3,38.5,9.3,48.2,4.9,11.8.5,24.8,2.7,37-12.6,77.8-26.4,158.4-42.5,234.9-15.2-96.1-26.7-193.5-39.6-289.8-8.8-96.6-18.5-157.4-84.8-233-2.8-1.7-6-2.9-9.1-4.5,38.6-217.5,72.7-430.3,110.3-647.1,13-72.4,20.7-125.7,33.2-195.3,22.2-115.1,48.6-246.5-86.9-300.3v-4.5Z"/>
    <path class="st8" d="M3078.9,2206.7c119.9,85.1,40.9,277.6-102,257.3-104.4-9.9-161-142.9-98.2-226.1,43.3-64.5,139.7-81.8,200.1-31.2Z"/>
    <path class="st12" d="M3422.3,1907.3c-96.4-17.8-193.6-31.4-290.6-45.9-454.7-65.7-908.7-137-1364.3-195.1v-2.3h-27.2v.2c-11.3-1.8-22.7-2.4-33.9-4.7-3.2-2.8-14.7-1.9-19.7-2.9-35-2.9-63.1.8-95.7,14.2v2.3c-35,7.1-82.1,65.6-86,103h-2.3c-27.7,133.2-52.3,290.2-76.9,426.5h-12.4v1.1c3.8.4,7.6.8,11.3,1.1v5.7h1c-29.9,164.3-65.2,333.9-85.9,500.1,49,6.5,97.9,15.4,147.1,19.2,6.3-55.1,22.9-142.3,31.7-202.5,28.5-168.6,56.7-338.8,87.5-507.5,19.5-87.7,6.2-222.4,136-204.6,297.4,43.8,595.1,85.6,892.5,129.4,210.2,30,420.3,60.9,630.5,90.9,91.3,5.2,156.1,39.7,135.6,142.2-9,50.5-16.6,105.8-24.4,157.2-9.8,56-17.7,104.8-27.2,164.1-21.9,130.4-48.5,262.1-64.5,393.7h-2.3c-4.2,31.7-11.6,63.1-13.6,95,45.5,4.6,86.6,24.5,125.9,45.9-.1.5-.2,1-.3,1.6,4,2.8,7.8,5.1,12.4,6.8.1-.6.3-1.1.4-1.7-.1.9-.3,1.9-.4,2.8,10,7.3,19.4,17.8,29.4,24.9,47.8-289.8,98.7-579.3,146.5-869.1,37.1-151.9,10.1-263-160.4-291.7ZM1750.4,1668.1c.4,0,.9.1,1.3.2-.4.1-.9.2-1.3.3v-.5ZM1762.9,1666.3h0v2.3h0,0v-2.3ZM1575.1,1689s0,0,0,0h0s0,0,0,0ZM1551.6,1710.5c-.2.2-.4.4-.6.6l.3-.6h.3ZM1547.3,1715c-.4.5-.9.9-1.3,1.4.3-.5.5-.9.8-1.4h.5ZM1519.6,1760.2h0s0,0,0,0h0ZM1524.2,1746.7h2.3s0,0,0,0c0,0,0,0,0,0h-2.3ZM1528.4,1742c0,.2-.2.3-.2.5,0-.2.2-.3.2-.5ZM1575.1,1691.2h0ZM3419.6,2908.6c-.1.6-.2,1.3-.3,1.9,0-.6,0-1.3,0-1.9-.4,1.5-.8,3-1.1,4.5.5-3.3,1-6.5,1.6-9.8-.2,1.8-.3,3.5-.4,5.3h.4ZM3425.7,2925c.1-1.8.2-3.5.4-5.1h-.8c0,0,0-.1,0-.2.5-.2.9-.5,1.3-.7-.3,2-.6,4-.9,6ZM3437.4,1923.2c-.2-.6-.4-1.1-.6-1.7.7.8,1.6,1.6,2.4,2.3-.6-.2-1.2-.4-1.9-.6ZM3486,2503.1c.5-3.4,1.1-6.7,1.6-10.1-.3,2.6-.7,5.2-1,7.8-.2.8-.5,1.6-.7,2.3ZM3487.5,2546.9c1.9-13.7,3.7-27.4,5.4-41.2,0,1.2,0,2.4,0,3.5h1.1c-2.1,12.5-4.3,25.1-6.4,37.6Z"/>
  </g>
  <path class="st11" d="M3808.1,4244.4l271.8-1647.9s32.8-229.3-282.6-231.4l-228.8,1231.6,26.1,711.6,100.3,4.1,55,5.4,58.1-73.5Z"/>
  <path class="st9" d="M3978.1,2404.2c-41.5-22.9-99.6-38.5-180.8-39l-228.8,1231.6,17.9,488.9,83.9,122.4,307.7-1803.9Z"/>
  <path class="st11" d="M854.6,2418.9h38v1.2h5.9v1.2h4.7v1.2h15.4v1.2h4.7v1.2h11.9v1.2h4.7v1.2h11.9v1.2h4.7v1.2h7.1v1.2h7.1v1.2h4.7v1.2h9.5v1.2h9.5v1.2h7.1v1.2h7.1v1.2h9.5v1.2h5.9v1.2h8.3v1.2h9.5v1.2h7.1v1.2h9.5v1.2h7.1v1.2h4.7v1.2h11.9v2.4h14.2v1.2h11.9v1.2h4.7v1.2h11.9v1.2h4.7v1.2h11.9v1.2h9.5v1.2h7.1v1.2h7.1v1.2h9.5v1.2h9.5v1.2h7.1v1.2h1.2v1.2h20.2v1.2h9.5v1.2h9.5v1.2h8.3v1.2h5.9v1.2h4.7v1.2h9.5v1.2h4.7v1.2h9.5v1.2h9.5v1.2h7.1v1.2h4.7v1.2h11.9v1.2h4.7v1.2h9.5v1.2h7.1v1.2h11.9v1.2h9.5v1.2h11.9v1.2h4.7v1.2h11.9v1.2h4.7v1.2h11.9v1.2h4.7v1.2h7.1v1.2h9.5v1.2h9.5v1.2h4.7v1.2h14.2v1.2h4.7v1.2h9.5v1.2h4.7v1.2h9.5v1.2h4.7v1.2h19v1.2h4.7v2.4h9.5v1.2h14.2v1.2h7.1v1.2h11.9v2.4h9.5v1.2h3.6v1.2h20.2v1.2h9.5v1.2h7.1v1.2h2.4v1.2h9.5v1.2h9.5v1.2h9.5v1.2h9.5v1.2h4.7v1.2h4.7v1.2h11.9v1.2h7.1v1.2h9.5v1.2h3.6v1.2h13v1.2h7.1v1.2h14.2v1.2h4.7v1.2h9.5v1.2h7.1v1.2h11.9v2.4h14.2v1.2h4.7v1.2h14.2v1.2h4.7v1.2h15.4v1.2h3.6v1.2h4.7v1.2h9.5v1.2h11.9v1.2h7.1v1.2h13v1.2h1.2v1.2h9.5v1.2h4.7v1.2h9.5v1.2h9.5v1.2h7.1v1.2h9.5v1.2h7.1v1.2h9.5v1.2h3.6v1.2h13v1.2h7.1v1.2h19v1.2h7.1v1.2h7.1v1.2h9.5v1.2h4.7v1.2h9.5v1.2h9.5v1.2h9.5v1.2h4.7v1.2h7.1v1.2h4.7v1.2h11.9v1.2h4.7v1.2h9.5v1.2h7.1v1.2h7.1v1.2h4.7v1.2h14.2v1.2h7.1v1.2h11.9v1.2h4.7v1.2h9.5v1.2h4.7v1.2h14.2v1.2h10.7v1.2h8.3v1.2h3.6v1.2h5.9v1.2h9.5v1.2h10.7v1.2h3.6v1.2h4.7v1.2h4.7v1.2h14.2v1.2h4.7v1.2h14.2v1.2h9.5v1.2h4.7v1.2h9.5v1.2h9.5v1.2h9.5v1.2h7.1v1.2h4.7v1.2h11.9v1.2h9.5v1.2h9.5v1.2h7.1v1.2h2.4v1.2h19v1.2h4.7v1.2h2.4v1.2h11.9v1.2h9.5v1.2h10.7v1.2h5.9v1.2h7.1v1.2h9.5v1.2h9.5v1.2h8.3v1.2h5.9v1.2h4.7v1.2h11.9v1.2h4.7v1.2h11.9v1.2h4.7v1.2h11.9v1.2h9.5v1.2h7.1v1.2h4.7v1.2h11.9v1.2h7.1v1.2h9.5v1.2h4.7v1.2h14.2v1.2h4.7v1.2h4.7v1.2h14.2v1.2h7.1v1.2h9.5v1.2h7.1v1.2h9.5v1.2h4.7v1.2h3.6v1.2h10.7v1.2h9.5v1.2h4.7v1.2h5.9v1.2h13v1.2h4.7v1.2h19v1.2h2.4v1.2h11.9v2.4h14.2v1.2h7.1v1.2h2.4v1.2h3.6v1.2h17.8v1.2h4.7v1.2h16.6v1.2h4.7v1.2h9.5v1.2h11.9v1.2h2.4v1.2h9.5v1.2h11.9v1.2h8.3v1.2h8.3v1.2h4.7v1.2h14.2v1.2h4.7v1.2h4.7v1.2h9.5v1.2h9.5v1.2h7.1v1.2h7.1v1.2h4.7v1.2h14.2v1.2h9.5v1.2h13v1.2h5.9v1.2h7.1v1.2h7.1v1.2h4.7v1.2h9.5v1.2h9.5v1.2h7.1v1.2h7.1v1.2h4.7v1.2h9.5v1.2h7.1v1.2h7.1v1.2h14.2v1.2h9.5v1.2h7.1v1.2h7.1v1.2h9.5v1.2h11.9v1.2h4.7v1.2h11.9v2.4h9.5v1.2h7.1v1.2h7.1v1.2h9.5v1.2h11.9v1.2h4.7v1.2h11.9v1.2h4.7v1.2h9.5v1.2h7.1v1.2h11.9v1.2h4.7v1.2h7.1v1.2h9.5v1.2h11.9v1.2h4.7v1.2h14.2v1.2h7.1v1.2h11.9v2.4h14.2v1.2h4.7v1.2h9.5v1.2h4.7v1.2h7.1v1.2h8.3v1.2h3.6v2.4h4.7v1.2h2.4v1.2h4.7v1.2h2.4v1.2h4.7v1.2h2.4v1.2h1.2v1.2h3.6v1.2h2.4v1.2h2.4v1.2h4.7v1.2h1.2v1.2h1.2v1.2h3.6v1.2h1.2v1.2h2.4v1.2h1.2v1.2h2.4v1.2h2.4v1.2h2.4v1.2h3.6v1.2h1.2v1.2h1.2v1.2h1.2v1.2h1.2v1.2h2.4v1.2h1.2v1.2h2.4v1.2h1.2v1.2h2.4v1.2h1.2v1.2h2.4v1.2h1.2v1.2h1.2v1.2h2.4v1.2h1.2v1.2h1.2v1.2h1.2v1.2h1.2v1.2h1.2v1.2h2.4v1.2h1.2v1.2h1.2v1.2h1.2v1.2h1.2v1.2h1.2v2.4h2.4v1.2h1.2v1.2h1.2v1.2h2.4v2.4h1.2v1.2h1.2v1.2h2.4v2.4h1.2v1.2h1.2v1.2h1.2v1.2h1.2v1.2h1.2v1.2h1.2v2.4h1.2v1.2h1.2v1.2h1.2v1.2h1.2v1.2h1.2v2.4h1.2v1.2h1.2v1.2h1.2v2.4h1.2v1.2h1.2v2.4h1.2v1.2h1.2v2.4h1.2v1.2h1.2v2.4h1.2v2.4h1.2v1.2h1.2v1.2h1.2v2.4h1.2v2.4h1.2v2.4h1.2v2.4h1.2v2.4h1.2v1.2h1.2v4.7h2.4v2.4h1.2v1.2h1.2v3.6h1.2v1.2h1.2v3.6h1.2v1.2h1.2v3.6h1.2v2.4h1.2v3.6h1.2v2.4h1.2v5.9h1.2v1.2h1.2v4.7h1.2v2.4h1.2v7.1h1.2v2.4h1.2v7.1h1.2v11.9h1.2v7.1h1.2v11.9h1.2v7.1h1.2v4.7h1.2v14.2h1.2v4.7h1.2v14.2h1.2v10.7h1.2v9.5h1.2v9.5h1.2v8.3h1.2v2.4h1.2v13h1.2v3.6h1.2v14.2h1.2v4.7h1.2v11.9h1.2v11.9h1.2v7.1h1.2v13h1.2v14.2h2.4v8.3h1.2v4.7h1.2v11.9h1.2v4.7h1.2v9.5h1.2v17.8h1.2v4.7h1.2v5.9h1.2v11.9h1.2v7.1h1.2v14.2h1.2v3.6h1.2v10.7h1.2v9.5h1.2v7.1h1.2v7.1h1.2v11.9h1.2v10.7h1.2v9.5h1.2v3.6h1.2v11.9h1.2v8.3h1.2v10.7h1.2v7.1h1.2v14.2h1.2v8.3h1.2v9.5h1.2v7.1h1.2v8.3h1.2v7.1h1.2v10.7h1.2v10.7h1.2v4.7h1.2v5.9h1.2v10.7h1.2v7.1h1.2v9.5h1.2v9.5h1.2v11.9h1.2v7.1h1.2v7.1h1.2v4.7h1.2v11.9h1.2v7.1h1.2v15.4h1.2v8.3h1.2v8.3h1.2v8.3h1.2v9.5h1.2v4.7h1.2v10.7h1.2v5.9h1.2v11.9h1.2v9.5h1.2v9.5h1.2v4.7h1.2v11.9h1.2v4.7h1.2v13h1.2v5.9h1.2v16.6h1.2v9.5h1.2v5.9h1.2v3.6h1.2v14.2h1.2v4.7h1.2v16.6h1.2v2.4h1.2v14.2h1.2v5.9h1.2v13h1.2v4.7h1.2v11.9h1.2v7.1h1.2v10.7h1.2v5.9h1.2v11.9h1.2v4.7h1.2v15.4h1.2v3.6h1.2v11.9h1.2v7.1h1.2v11.9h1.2v7.1h1.2v14.2h1.2v5.9h1.2v10.7h1.2v7.1h1.2v14.2h1.2v7.1h1.2v8.3h1.2v8.3h1.2v11.9h1.2v4.7h1.2v13h1.2v8.3h1.2v7.1h1.2v7.1h1.2v14.2h1.2v4.7h1.2v11.9h1.2v3.6h1.2v14.2h1.2v13h1.2v7.1h1.2v8.3h1.2v9.5h1.2v8.3h1.2v11.9h1.2v3.6h1.2v14.2h1.2v10.7h1.2v11.9h1.2v2.4h1.2v9.5h1.2v4.7h1.2v5.9h1.2v1.2h1.2v4.7h1.2v2.4h1.2v3.6h1.2v1.2h1.2v4.7h1.2v2.4h1.2v2.4h1.2v2.4h1.2v2.4h1.2v1.2h1.2v2.4h1.2v1.2h1.2v2.4h1.2v1.2h1.2v2.4h1.2v1.2h1.2v1.2h1.2v1.2h1.2v2.4h1.2v1.2h1.2v1.2h1.2v1.2h1.2v1.2h1.2v1.2h1.2v1.2h1.2v1.2h1.2v1.2h1.2v1.2h1.2v1.2h2.4v1.2h1.2v1.2h1.2v1.2h2.4v1.2h1.2v1.2h1.2v1.2h2.4v1.2h1.2v1.2h1.2v1.2h2.4v1.2h2.4v1.2h2.4v1.2h1.2v1.2h2.4v1.2h2.4v1.2h1.2v1.2h3.6v1.2h21.4v-1.2h5.9v-1.2h4.7v-1.2h7.1v-1.2h8.3v-1.2h2.4v-1.2h2.4v-1.2h1.2v-1.2h2.4v-1.2h2.4v-1.2h2.4v-1.2h2.4v-1.2h1.2v-1.2h2.4v-1.2h1.2v-1.2h1.2v-1.2h3.6v-1.2h1.2v-1.2h2.4v-1.2h1.2v-1.2h1.2v-1.2h2.4v-1.2h1.2v-1.2h1.2v-1.2h2.4v-1.2h1.2v-1.2h2.4v-1.2h1.2v-1.2h2.4v-1.2h1.2v-1.2h2.4v3.6h-1.2v1.2h-1.2v1.2h-1.2v1.2h-1.2v2.4h-1.2v2.4h-1.2v2.4h-1.2v1.2h-1.2v1.2h-1.2v3.6h-1.2v1.2h-1.2v1.2h-1.2v1.2h-1.2v2.4h-1.2v1.2h-1.2v1.2h-1.2v3.6h-1.2v1.2h-1.2v1.2h-1.2v1.2h-1.2v2.4h-1.2v1.2h-1.2v1.2h-2.4v2.4h-1.2v1.2h-1.2v2.4h-1.2v1.2h-1.2v2.4h-1.2v1.2h-1.2v1.2h-1.2v1.2h-1.2v1.2h-1.2v2.4h-2.4v1.2h-1.2v1.2h-1.2v1.2h-1.2v1.2h-1.2v1.2h-1.2v1.2h-1.2v1.2h-1.2v1.2h-1.2v1.2h-1.2v1.2h-1.2v1.2h-1.2v1.2h-2.4v1.2h-1.2v1.2h-1.2v1.2h-2.4v1.2h-1.2v1.2h-1.2v1.2h-1.2v1.2h-1.2v1.2h-2.4v1.2h-1.2v1.2h-2.4v1.2h-1.2v1.2h-1.2v1.2h-1.2v1.2h-2.4v1.2h-1.2v1.2h-1.2v1.2h-2.4v1.2h-1.2v1.2h-2.4v1.2h-2.4v1.2h-1.2v1.2h-2.4v1.2h-2.4v1.2h-1.2v1.2h-2.4v1.2h-2.4v1.2h-3.6v1.2h-1.2v1.2h-2.4v1.2h-2.4v1.2h-3.6v1.2h-4.7v1.2h-1.2v1.2h-2.4v1.2h-2.4v1.2h-2.4v1.2h-4.7v1.2h-2.4v1.2h-3.6v1.2h-4.7v1.2h-3.6v1.2h-2.4v1.2h-5.9v1.2h-7.1v1.2h-4.7v1.2h-4.7v1.2h-11.9v1.2h-27.3v-1.2h-13v-1.2h-9.5v-1.2h-13v-1.2h-7.1v-1.2h-8.3v-1.2h-7.1v-1.2h-11.9v-1.2h-8.3v-1.2h-5.9v-1.2h-4.7v-1.2h-7.1v-1.2h-11.9v-1.2h-11.9v-1.2h-4.7v-1.2h-9.5v-1.2h-7.1v-1.2h-9.5v-1.2h-7.1v-1.2h-7.1v-1.2h-15.4v-1.2h-4.7v-1.2h-5.9v-1.2h-7.1v-1.2h-7.1v-1.2h-10.7v-1.2h-5.9v-1.2h-9.5v-1.2h-8.3v-1.2h-10.7v-1.2h-2.4v-1.2h-11.9v-1.2h-3.6v-1.2h-13v-1.2h-4.7v-1.2h-9.5v-1.2h-4.7v-1.2h-15.4v-1.2h-5.9v-1.2h-7.1v-1.2h-4.7v-1.2h-13v-1.2h-5.9v-1.2h-9.5v-1.2h-7.1v-1.2h-9.5v-1.2h-7.1v-1.2h-8.3v-1.2h-7.1v-1.2h-10.7v-1.2h-4.7v-1.2h-10.7v-1.2h-5.9v-1.2h-11.9v-1.2h-4.7v-1.2h-7.1v-1.2h-9.5v-1.2h-7.1v-1.2h-9.5v-1.2h-8.3v-1.2h-3.6v-1.2h-14.2v-1.2h-7.1v-1.2h-8.3v-1.2h-8.3v-1.2h-9.5v-1.2h-4.7v-1.2h-9.5v-1.2h-9.5v-1.2h-11.9v-1.2h-7.1v-1.2h-7.1v-1.2h-9.5v-1.2h-7.1v-1.2h-7.1v-1.2h-9.5v-1.2h-2.4v-1.2h-15.4v-1.2h-9.5v-1.2h-5.9v-1.2h-7.1v-1.2h-7.1v-1.2h-9.5v-1.2h-5.9v-1.2h-10.7v-1.2h-9.5v-1.2h-7.1v-1.2h-5.9v-1.2h-5.9v-1.2h-13v-1.2h-5.9v-1.2h-8.3v-1.2h-5.9v-1.2h-11.9v-1.2h-7.1v-1.2h-9.5v-1.2h-7.1v-1.2h-9.5v-1.2h-9.5v-1.2h-5.9v-1.2h-10.7v-1.2h-8.3v-1.2h-11.9v-1.2h-3.6v-1.2h-11.9v-1.2h-4.7v-1.2h-11.9v-1.2h-7.1v-1.2h-7.1v-1.2h-11.9v-1.2h-7.1v-1.2h-8.3v-1.2h-5.9v-1.2h-13v-1.2h-5.9v-1.2h-10.7v-1.2h-3.6v-1.2h-14.2v-1.2h-7.1v-1.2h-8.3v-1.2h-8.3v-1.2h-8.3v-1.2h-8.3v-1.2h-7.1v-1.2h-8.3v-1.2h-9.5v-1.2h-8.3v-1.2h-9.5v-1.2h-7.1v-1.2h-9.5v-1.2h-7.1v-1.2h-7.1v-1.2h-11.9v-1.2h-9.5v-1.2h-2.4v-1.2h-11.9v-1.2h-7.1v-1.2h-10.7v-1.2h-5.9v-1.2h-9.5v-1.2h-7.1v-1.2h-13v-1.2h-5.9v-1.2h-8.3v-1.2h-5.9v-1.2h-14.2v-1.2h-7.1v-1.2h-7.1v-1.2h-4.7v-1.2h-16.6v-1.2h-8.3v-1.2h-4.7v-1.2h-8.3v-1.2h-11.9v-1.2h-7.1v-1.2h-9.5v-1.2h-7.1v-1.2h-9.5v-1.2h-7.1v-1.2h-10.7v-1.2h-5.9v-1.2h-9.5v-1.2h-9.5v-1.2h-8.3v-1.2h-8.3v-1.2h-11.9v-1.2h-5.9v-1.2h-5.9v-1.2h-4.7v-1.2h-13v-1.2h-5.9v-1.2h-9.5v-1.2h-4.7v-1.2h-11.9v-1.2h-11.9v-1.2h-4.7v-1.2h-2.4v-1.2h-17.8v-1.2h-8.3v-1.2h-5.9v-1.2h-8.3v-1.2h-11.9v-1.2h-7.1v-1.2h-9.5v-1.2h-7.1v-1.2h-11.9v-1.2h-7.1v-1.2h-7.1v-1.2h-9.5v-1.2h-11.9v-1.2h-4.7v-1.2h-11.9v-1.2h-7.1v-1.2h-9.5v-1.2h-7.1v-1.2h-11.9v-1.2h-7.1v-1.2h-10.7v-1.2h-10.7v-1.2h-7.1v-1.2h-1.2v-1.2h-15.4v-1.2h-7.1v-1.2h-10.7v-1.2h-8.3v-1.2h-8.3v-1.2h-5.9v-1.2h-10.7v-1.2h-5.9v-1.2h-13v-1.2h-5.9v-1.2h-8.3v-1.2h-8.3v-1.2h-11.9v-1.2h-4.7v-1.2h-10.7v-1.2h-5.9v-1.2h-11.9v-1.2h-9.5v-1.2h-7.1v-1.2h-7.1v-1.2h-10.7v-1.2h-8.3v-1.2h-5.9v-1.2h-3.6v-1.2h-15.4v-1.2h-5.9v-1.2h-9.5v-1.2h-7.1v-1.2h-14.2v-1.2h-7.1v-1.2h-7.1v-1.2h-7.1v-1.2h-11.9v-1.2h-2.4v-1.2h-10.7v-1.2h-3.6v-1.2h-13v-1.2h-10.7v-1.2h-5.9v-1.2h-7.1v-1.2h-9.5v-1.2h-5.9v-1.2h-10.7v-1.2h-5.9v-1.2h-13v-1.2h-8.3v-1.2h-7.1v-1.2h-4.7v-1.2h-11.9v-1.2h-4.7v-1.2h-9.5v-1.2h-4.7v-1.2h-11.9v-1.2h-7.1v-1.2h-4.7v-1.2h-9.5v-1.2h-10.7v-1.2h-5.9v-1.2h-9.5v-1.2h-5.9v-1.2h-13v-1.2h-7.1v-1.2h-7.1v-1.2h-4.7v-1.2h-14.2v-1.2h-4.7v-1.2h-9.5v-1.2h-3.6v-1.2h-15.4v-1.2h-10.7v-1.2h-3.6v-1.2h-7.1v-1.2h-9.5v-1.2h-9.5v-1.2h-7.1v-1.2h-7.1v-1.2h-11.9v-1.2h-7.1v-1.2h-5.9v-1.2h-5.9v-1.2h-13v-1.2h-3.6v-1.2h-9.5v-1.2h-9.5v-1.2h-11.9v-1.2h-7.1v-1.2h-7.1v-1.2h-2.4v-1.2h-16.6v-1.2h-7.1v-1.2h-2.4v-1.2h-11.9v-1.2h-2.4v-1.2h-3.6v-1.2h-5.9v-1.2h-4.7v-1.2h-3.6v-1.2h-3.6v-1.2h-3.6v-1.2h-3.6v-1.2h-3.6v-1.2h-1.2v-1.2h-3.6v-1.2h-3.6v-2.4h-1.2v-1.2h-4.7v-1.2h-1.2v-1.2h-2.4v-1.2h-2.4v-2.4h-2.4v-1.2h-3.6v-1.2h-1.2v-1.2h-1.2v-1.2h-2.4v-1.2h-3.6v-2.4h-1.2v-1.2h-1.2v-1.2h-2.4v-3.6h-3.6v-1.2h-1.2v-1.2h-1.2v-1.2h-1.2v-1.2h-1.2v-1.2h-2.4v-1.2h-1.2v-1.2h-1.2v-1.2h-1.2v-1.2h-1.2v-1.2h-2.4v-1.2h-1.2v-2.4h-1.2v-1.2h-1.2v-1.2h-2.4v-2.4h-2.4v-2.4h-1.2v-1.2h-1.2v-1.2h-1.2v-1.2h-1.2v-1.2h-1.2v-1.2h-1.2v-1.2h-1.2v-1.2h-1.2v-1.2h-1.2v-2.4h-1.2v-1.2h-1.2v-2.4h-1.2v-1.2h-1.2v-1.2h-1.2v-2.4h-1.2v-1.2h-1.2v-2.4h-1.2v-1.2h-1.2v-1.2h-1.2v-2.4h-1.2v-2.4h-1.2v-1.2h-1.2v-3.6h-1.2v-1.2h-1.2v-1.2h-1.2v-2.4h-1.2v-3.6h-1.2v-2.4h-1.2v-4.7h-2.4v-2.4h-1.2v-2.4h-1.2v-3.6h-1.2v-2.4h-1.2v-2.4h-1.2v-3.6h-1.2v-1.2h-1.2v-2.4h-1.2v-4.7h-1.2v-2.4h-1.2v-3.6h-1.2v-3.6h-1.2v-5.9h-4.7v-1.2h-1.2v-1.2h-2.4v-1.2h-1.2v-2.4h-1.2v-1.2h-3.6v-1.2h-1.2v-1.2h-1.2v-1.2h-1.2v-1.2h-1.2v-1.2h-1.2v-1.2h-1.2v-1.2h-1.2v-1.2h-1.2v-1.2h-1.2v-1.2h-1.2v-1.2h-1.2v-1.2h-1.2v-1.2h-1.2v-1.2h-1.2v-1.2h-1.2v-1.2h-1.2v-1.2h-1.2v-1.2h-1.2v-1.2h-1.2v-1.2h-1.2v-2.4h-1.2v-1.2h-1.2v-1.2h-1.2v-1.2h-1.2v-2.4h-1.2v-1.2h-1.2v-1.2h-1.2v-2.4h-1.2v-2.4h-1.2v-1.2h-1.2v-1.2h-1.2v-2.4h-1.2v-2.4h-1.2v-2.4h-1.2v-3.6h-1.2v-1.2h-1.2v-2.4h-1.2v-2.4h-1.2v-1.2h-1.2v-2.4h-1.2v-3.6h-1.2v-4.7h-1.2v-3.6h-1.2v-3.6h-2.4v-4.7h-1.2v-4.7h-1.2v-4.7h-1.2v-7.1h-1.2v-3.6h-1.2v-4.7h-1.2v-8.3h-1.2v-5.9h-1.2v-3.6h1.2v-4.7h-2.4v-11.9h-1.2v-1.2h1.2v-1.2h-1.2v-2.4h-1.2v-11.9h-1.2v-7.1h-1.2v-8.3h-1.2v-8.3h-1.2v-5.9h-1.2v-9.5h-1.2v-13h-1.2v-4.7h-1.2v-5.9h-1.2v-9.5h-1.2v-1.2h1.2v-1.2h-1.2v-8.3h-1.2v-5.9h-1.2v-5.9h-1.2v-3.6h1.2v-1.2h-1.2v-5.9h-1.2v-9.5h-1.2v-3.6h-1.2v-5.9h-1.2v-8.3h-1.2v-9.5h-1.2v-5.9h-1.2v-8.3h-1.2v-3.6h1.2v-1.2h-1.2v-3.6h1.2v-1.2h-1.2v-2.4h-1.2v-7.1h-1.2v-2.4h-1.2v-11.9h-1.2v-7.1h-1.2v-11.9h-1.2v-1.2h-1.2v-10.7h-1.2v-5.9h1.2v-1.2h-2.4v-10.7h-1.2v-3.6h-1.2v-9.5h-1.2v-2.4h1.2v-2.4h-1.2v-7.1h-1.2v-7.1h-1.2v-3.6h-1.2v-15.4h-1.2v-2.4h-1.2v-13h-1.2v-2.4h-1.2v-13h-1.2v-4.7h-1.2v-1.2h1.2v-1.2h-1.2v-3.6h1.2v-1.2h-1.2v-7.1h-1.2v-2.4h-1.2v-11.9h-1.2v-1.2h-1.2v-1.2h1.2v-2.4h-1.2v-8.3h1.2v-1.2h-2.4v-2.4h-1.2v-15.4h-1.2v-1.2h1.2v-1.2h-1.2v-2.4h-1.2v-1.2h1.2v-2.4h-1.2v-4.7h1.2v-2.4h-2.4v-2.4h-1.2v-10.7h-1.2v-2.4h1.2v-2.4h-1.2v-1.2h1.2v-2.4h-2.4v-5.9h1.2v-1.2h-1.2v-2.4h-1.2v-2.4h-1.2v-1.2h1.2v-1.2h1.2v-5.9h-1.2v-1.2h-1.2v-1.2h2.4v-1.2h-1.2v-4.7h-1.2v-4.7h-1.2v-2.4h-1.2v-3.6h1.2v-1.2h1.2v-1.2h-1.2v-1.2h-1.2v-1.2h1.2v-2.4h-1.2v-1.2h-1.2v-1.2h-1.2v-3.6h2.4v-1.2h-1.2v-2.4h-1.2v-1.2h2.4v-2.4h-1.2v1.2h-1.2v-4.7h1.2v-1.2h-1.2v-1.2h1.2v-1.2h-1.2v-4.7h1.2v-1.2h1.2v-2.4h1.2v-2.4h1.2v-1.2h1.2v-1.2h1.2v-3.6h-1.2v-5.9h-1.2v-1.2h1.2v-1.2h-1.2v-5.9h-1.2v-3.6h-1.2v-2.4h1.2v-1.2h-1.2v-3.6h1.2v-1.2h-1.2v-8.3h-2.4v-4.7h-1.2v-1.2h1.2v-5.9h-2.4v-1.2h-1.2v-1.2h1.2v-1.2h1.2v-2.4h-1.2v-2.4h1.2v-1.2h-1.2v-8.3h-2.4v-5.9h-1.2v-4.7h1.2v-5.9h-1.2v-1.2h1.2v-1.2h-1.2v-5.9h-1.2v-8.3h-2.4v-16.6h-1.2v-5.9h-1.2v-8.3h-1.2v-8.3h-1.2v-3.6h-1.2v-1.2h1.2v-5.9h-1.2v-2.4h-1.2v-7.1h1.2v-3.6h-1.2v-5.9h-1.2v-4.7h-1.2v-9.5h-1.2v-3.6h1.2v-1.2h-1.2v-4.7h-1.2v-4.7h1.2v-1.2h-1.2v-3.6h-1.2v-4.7h-1.2v-4.7h-1.2v-2.4h1.2v-2.4h-1.2v-8.3h-1.2v-5.9h-1.2v-1.2h-1.2v-1.2h1.2v-2.4h-1.2v-11.9h-1.2v-10.7h-1.2v-2.4h-1.2v-3.6h-1.2v-7.1h-1.2v-1.2h-1.2v1.2h-1.2v-9.5h1.2v-2.4h1.2v-2.4h-1.2v-1.2h-1.2v-2.4h-2.4v2.4h-2.4v-4.7h1.2v-1.2h2.4v-2.4h1.2v-5.9h-1.2v-2.4h-1.2v-2.4h1.2v-2.4h-1.2v-2.4h-1.2v-3.6h-1.2v-2.4h-1.2v-4.7h-1.2v-4.7h-1.2v-9.5h-2.4v2.4h-1.2v22.5h1.2v3.6h1.2v-1.2h1.2v3.6h1.2v4.7h-1.2v17.8h-1.2v-9.5h-1.2v-8.3h-1.2v-8.3h-1.2v-9.5h-1.2v-8.3h-1.2v-8.3h-1.2v-4.7h-1.2v-8.3h-1.2v-11.9h-1.2v-5.9h-1.2v-8.3h-1.2v-8.3h-1.2v-9.5h-1.2v-4.7h-1.2v-9.5h-1.2v-10.7h-1.2v-8.3h-1.2v-4.7h-1.2v-8.3h-1.2v-10.7h-1.2v-9.5h-1.2v-4.7h-1.2v-10.7h-1.2v-9.5h-1.2v-8.3h-1.2v-4.7h-1.2v-9.5h-1.2v-8.3h-1.2v-5.9h-1.2v-7.1h-1.2v-11.9h-1.2v-7.1h-1.2v-9.5h-1.2v-5.9h-1.2v-7.1h-1.2v-8.3h-1.2v-9.5h-1.2v-8.3h-1.2v-5.9h-1.2v-11.9h-1.2v-8.3h-1.2v-9.5h-1.2v-5.9h-1.2v-8.3h-1.2v-13h-1.2v-5.9h-1.2v-8.3h-1.2v-28.5h1.2v-8.3h1.2v-5.9h1.2v-8.3h1.2v-4.7h1.2v-2.4h2.4v2.4h1.2v-2.4h1.2v-3.6h1.2v-2.4h1.2v1.2h1.2v-2.4h1.2v-2.4h1.2v3.6h2.4v-2.4h1.2v-2.4h1.2v-1.2h1.2v-2.4h1.2v-2.4h1.2v-2.4h2.4v-1.2h1.2v-1.2h1.2v-1.2h2.4v-1.2h2.4v-1.2h1.2v-1.2h1.2v-1.2h2.4v-2.4h2.4v-1.2h1.2v-3.6h1.2v-1.2h2.4v-1.2h2.4v-1.2h2.4v-1.2h1.2v-1.2h2.4v-2.4h-2.4v-3.6h1.2v2.4h2.4v1.2h3.6v-1.2h1.2v-1.2h3.6v-1.2h1.2v-1.2h7.1v-1.2h2.4v-1.2h8.3v-1.2h1.2v1.2h1.2v-1.2h1.2v-2.4h4.7v-1.2h4.7v-1.2h9.5v-1.2h4.7v-1.2ZM848.7,3252.8h1.2v1.2h-1.2v-1.2Z"/>
  <g>
    <path class="st2" d="M2128.3,2785.6c86.4,14.8,156.4,87.8,179.6,175.1,129.5,13.3,202.4,204.8,95,286.9-32.4,27.1-75.7,26.1-115.8,17.9-17.7-4.8-41.5,1.9-53.2-16.8-17.3-27.5,7.7-45.2,32.9-36.8,37.8,4.1,76.4,17.4,108.9-7.7,78.2-67.9.4-209.1-97.5-194.9-7.6-1-10.9-8.9-11-16.1-9.1-91.8-103.8-177.7-191.5-151.7-46.6,12.2-79.5,55.9-84.4,105.6-3.9,24.5-29.4,2.6-44.3,4.7-84.3-3.9-109,107.8-59.8,169.7,33.2,48.3,89.9,53.7,140.7,58.6,26.7-.7,39.9,36,16.4,49.8-64.9-.3-139.8-12.3-184.5-70.5-84.1-93.3-42.3-274.4,92.6-256.6,19.2-78.1,98.4-130.3,175.8-117.3Z"/>
    <path class="st10" d="M2132.4,3020.6c21.5,13.2,34.4,38.5,52,56.8,12.8,18.9,34.7,33.4,42,55.3-.6,15.2-14.6,26.1-29,22.8-15.5-10.1-24.8-28.9-39.1-41,2.4,38.1,4.6,76.2,7,114.2,2.7,23.2-27.3,35-41.3,16.2-8.9-10.3-6-24.1-7.5-36.5-2.1-33.4-4.1-66.7-6.2-100.1-9.3,7.4-16,17-25.2,24.6-17,13.8-41.4-6.7-38.7-27.7,9.9-17.2,27.4-29.1,39.3-45,14.6-12.8,25.9-38.7,46.8-39.5Z"/>
  </g>
  <g>
    <path class="st2" d="M2289.1,3383.3c103.2,14.1,219.8,23.2,320.3,43.5,4.4,70.5,7.8,141.8,11.8,212.4-70.8-5.1-141.3-15.5-211.8-25.7-.9,7.8-4.6,12.4-9.3,18.6h-2.9c-1.3,3.1-2.6,6.2-3.9,9.3,83.7,9.2,186.4,19.3,266.8,36,1.7,48.3-4.3,96.9-7.4,145.3,3.7,79.7-64.2,80.1-122.1,63.8-8.5-18.4-18.5-40.2-22.5-59.8,19.9-1.4,56.3,12.8,70.6,5.5,20.1-29.6,10.1-71.7,16.4-106.4-13-1.3-26.7-2.6-40-4.2-5.6,36.9-29.2,67.9-49,97.5-1,0-1.9,0-2.9,0-14.1,24.6-37.7,44.1-59.9,60.6-2.6-1.9-5.2-4-7.7-6.1l-.2-3.1c-15.7-8.3-26.2-25.8-41.7-35,34.8-35.7,89.8-67.5,96-125.6-13.4.3-26.7,1.6-39.9-2.7-29,61.1-80.8,104.4-138.1,135.3-10.2-14.4-41-37-42.6-52,39.2-16.7,96-50,112.5-93.4-11.8,1-23-1-34.2-5.6-17.5,9.2-33.5,26.8-51.7,37.3-5.2,3.2-14.1,12.9-20.1,10.2-6.3-4.1-11-9.9-16.5-15q-24.4-23.7-27.6-28.6c-.1-2-.2-4.1-.3-6.2,88.9-50.9,97.5-56.9,103.9-88.7-13.6-2-30.4.7-42.9-4.2-4.3-67-7.6-134-11.6-201-.9-7.3,0-12.5,8.4-11.8ZM2345.7,3446.3c.5,9.1,1,18.3,1.5,27.7,67.2,7.7,134.3,18.1,201.5,25.8-1.5-9.3,1.3-21.1-3.1-29.2-66.7-6.4-133.3-20.3-200-24.3ZM2350,3523.2c.5,9.6,1.1,19.3,1.6,29.2,66.7,6.6,133.3,19.2,200,24.3-.5-9.6-1.1-19.3-1.6-29.2-78.5-6.7-126.3-16.4-200-24.3Z"/>
    <path class="st2" d="M1408.6,3251.4c19.1,1.4,44.2,4.2,61.7,10.6,3.6,48.2,6.3,96.4,9.5,144.7,55.7,6.9,111.7,11.7,167.4,20,8.9,71.8,8.6,145.4,14.4,217.7,4.1,50.6,16.7,126.7-54.8,118.1-12.1-2.1-51.9,1-57.7-10-6-21.5-15-40.6-18.2-63,22.6-.3,43.7,7.3,66.6,7.1-3.4-70.6-6.9-141.2-10.5-213.9-94.3-8.6-187.1-23.8-275.6-35.9,5.1,91.9,10.2,183.9,15.5,278.6-31,.4-37.2-1.9-63.6-5.6-11.8-113.1-14.4-228-22-341.6,55.8,1.7,111.8,10.3,167.3,18.5-2.6-44.6-5.1-89.2-7.6-133.9q-.6-11,7.6-11.3Z"/>
    <path class="st10" d="M2995.4,3463.3c18.1,0,48.8.4,63.7,7.1,2.1,29.7,3.3,60.9,5.1,90.8,36.4,1.4,71.7,8.2,108.1,12.8,1,19.5,2.5,39,3.3,58.5-18.2,5.8-40.1-1.7-59.4-3.1-17.5-3.1-33.9-3.4-51.6-8.2,4.6,54.3,5.6,67,6.4,89.3,21.9.5,75.7,4.1,90.4,11.5,5.4,80.4,5.9,161.2,10.5,241.7-16-1.4-51.4,2.3-62.4-10.2-1.4-7.2-1.4-9.4-2.5-18.5-35-5.2-70.2-7.5-105.2-12.9-.3,6.1,2.9,17-.3,21.6-14.7,1.4-47.2-3.8-57.9-8.7-4.9-80.5-8.9-161.1-13.5-241.6,26.1-.2,52.3,3.9,78.4,7-4.4-78.2-8.7-156.4-13.2-237ZM2991.5,3762.1c1.8,32,3.6,64,5.4,97,39.1,7.3,72.2,10.3,111,11.3-1.7-30.5-3.4-60.9-5.1-92.3-36.2-9.9-74.2-11.6-111.2-15.9Z"/>
    <path class="st2" d="M1802.2,3317c99.7,13.4,200.2,21.8,297.3,42.2,3.4,63.2,9.9,131.9,7.9,193.9-100.2-12.4-200.4-27.5-300.9-40.3-3.5-62.3-7-124-10.6-186.4-.3-5.9-1.5-10.3,6.2-9.5ZM1862.9,3389.2c1.2,22.3,2.5,44.7,3.8,67.7,57.6,8.4,115.5,17.5,173.3,21.5-2.5-22.6.3-45.5-5.2-67.7-55.7-8.4-117.6-17.1-171.9-21.5Z"/>
    <path class="st2" d="M1974.8,3576c69.9,8.5,131.3,12,198.7,27.4,5.7,76.5,8.3,154.2,12.9,230.9-21.1.7-42.9-.3-63.7-7.1-.4-7.1-.8-14.2-1.2-21.5-25.6.5-51.2-3.6-76.8-5.4.4,6.6.7,13.2,1.1,20-19.7-.4-37.9-3.8-57.8-7.2-4.4-78.2-8.7-156.4-13.2-237ZM2036.1,3646.3c1.6,28.9,3.2,57.9,4.9,87.7,29,7.1,50.3,7.9,78.5,10-1.6-28.9-3.2-57.9-4.9-87.7-32.7-6.1-47-7.8-78.5-10Z"/>
    <path class="st8" d="M1743.8,3548.9c63.9.4,129,10.6,192.4,21.3,4.3,77.2,8.6,154.4,13,233.9-24,.5-29.2-3.6-49.9-4.6q-9.1-.8-10.8-2.5c-.6-6.7-.8-13.3-1.1-20-21.2-2.2-53.3-4.9-72.7-10.1.4,7.6.8,15.2,1.3,23.1-19.7-.9-37.7-1.9-57.7-5.6-8.9-77.5-8.8-157.4-14.6-235.5ZM1806.5,3617.6c1.6,28.9,3.2,57.9,4.9,87.7,47.4,6.2,39.4,7.4,72.6,8.6-3.1-29.7-.4-62.2-6.5-90.8-23.4-2.4-47.3-6.1-70.9-5.5Z"/>
    <path class="st1" d="M1353.3,3484.8c64.3,6.3,130.7,13.8,194.1,24.4,5.8,54.3,7.3,108.8,10.6,163.1-46-.8-91.8-11.6-137.8-17.2.5,7.7,1.1,15.4,1.3,23.1-15.8,5.3-33.7-1.3-50.9-1.7q-3.7-.9-6.9-5.5c-4.4-61.9-6.7-124.2-10.4-186.2ZM1415.7,3548.9c.9,16.8,1.9,33.5,2.8,50.8,38.3,5,44.4,6.3,77,8.5-.9-16.8-1.9-33.5-2.8-50.8-25.6-2.8-51.3-9.2-77-8.5Z"/>
    <path class="st5" d="M2853.2,3604.7c18.3,1.6,35.8,8.6,53.7,13.4,1,57.4-16.8,114.4-24.3,171.1,14.1-3.2,28-3.7,42.5-3.5,2.5,17.4,8.1,47.4,7.7,58.4-61.3,11.1-123.4,22.3-185.3,27.9-4.5-22.3-15.9-45-14.1-67.6,32.6-6.2,66.5-6.1,99.4-11.7,7.3-62.6,16.6-124.8,20.4-188.1Z"/>
    <path class="st3" d="M2824.8,3437.2c12.9,21.2,31,58.2,33.9,79.8-5.7,1.6-11.5,3.2-17.4,4.8,0,1.5.2,3,.3,4.6,25.9,4.6,53,3.1,78.6,11.6,1,19,2.5,38,3.2,56.9-64.4,1.9-132.6-17.2-198.3-21.2-1.1-20.3-2.3-40.6-3.4-61.6,25.2,2.4,50.5,1.2,75.4,7q-18.7-54.5-25.7-64.4.4-3.4,1.1-6.2c9.7-3.5,48.2-11,52.3-11.3Z"/>
    <path class="st13" d="M2742.5,3598.1c14.8.9,31.3-2.9,45.7,1.1,11.5,55.4,28.2,111.1,31.4,167.5-12,5.6-37,8.9-48,9.7-7.5-59.5-22.7-118.8-29.1-178.4Z"/>
    <path class="st6" d="M1286.8,3245.5c30.2,26.1,50.1,67.6,73.4,100.7-.6,16.8-22.8,19.7-33.7,28-5.9,2.2-10.5,9.5-17.4,6.8-25.1-34-43.5-73.9-72-106.1q-.3-3.7,1-7.7c13.9-7.4,34.5-18,48.7-21.7Z"/>
    <path class="st16" d="M1577.6,3285.6c22.6,5.9,42.8,20.7,63.6,31.7-15.1,29.3-52,89.7-63.9,94.5-18.9-1.3-34.8-21.4-53.1-28.8,12.6-33.8,41.6-62.1,53.4-97.5Z"/>
  </g>
</svg>